<?xml version="1.0" standalone="no"?>
<!DOCTYPE svg PUBLIC "-//W3C//DTD SVG 20010904//EN"
 "http://www.w3.org/TR/2001/REC-SVG-20010904/DTD/svg10.dtd">
<svg version="1.0" xmlns="http://www.w3.org/2000/svg"
 width="460.000000pt" height="460.000000pt" viewBox="0 0 460.000000 460.000000"
 preserveAspectRatio="xMidYMid meet">
<metadata>
Created by potrace 1.14, written by Peter Selinger 2001-2017
</metadata>
<g transform="translate(0.000000,460.000000) scale(0.100000,-0.100000)"
fill="#000000" stroke="none">
<path d="M0 2300 l0 -2300 2300 0 2300 0 0 2300 0 2300 -2300 0 -2300 0 0
-2300z m2270 1897 c0 -2 31 -130 69 -283 38 -153 90 -362 115 -464 39 -162
139 -566 292 -1190 25 -102 59 -237 74 -300 30 -119 151 -613 221 -900 22 -91
55 -223 74 -295 36 -140 57 -236 53 -240 -4 -4 -330 -33 -510 -45 -182 -13
-318 -26 -322 -31 -1 -2 -20 -32 -41 -67 -21 -34 -43 -61 -49 -59 -6 2 -29 32
-51 68 -34 54 -45 64 -70 66 -16 2 -82 7 -145 12 -63 6 -153 13 -200 16 -142
10 -425 36 -428 40 -5 5 20 117 58 265 16 63 66 264 110 445 45 182 94 382
110 445 16 63 66 264 110 445 45 182 96 391 115 465 19 74 87 347 150 605 221
895 249 1005 257 1005 4 0 8 -2 8 -3z"/>
<path d="M2257 3970 c-4 -14 -6 -50 -6 -80 l1 -55 9 60 c11 70 8 116 -4 75z"/>
<path d="M2242 3570 c0 -14 2 -19 5 -12 2 6 2 18 0 25 -3 6 -5 1 -5 -13z"/>
<path d="M2232 3240 c0 -14 2 -19 5 -12 2 6 2 18 0 25 -3 6 -5 1 -5 -13z"/>
<path d="M2222 2905 c0 -16 2 -22 5 -12 2 9 2 23 0 30 -3 6 -5 -1 -5 -18z"/>
<path d="M2212 2570 c0 -14 2 -19 5 -12 2 6 2 18 0 25 -3 6 -5 1 -5 -13z"/>
<path d="M2202 2235 c0 -16 2 -22 5 -12 2 9 2 23 0 30 -3 6 -5 -1 -5 -18z"/>
<path d="M2192 1900 c0 -14 2 -19 5 -12 2 6 2 18 0 25 -3 6 -5 1 -5 -13z"/>
</g>
</svg>
